<svg width="149" height="24" viewBox="0 0 149 24" fill="none" xmlns="http://www.w3.org/2000/svg">
<path d="M0.2 18V17.64L1.64 17.28V1.92L0.2 1.56V1.2H7.04V1.56L5.6 1.92V9.36H10.76V1.92L9.32 1.56V1.2H16.16V1.56L14.72 1.92V17.28L16.16 17.64V18H9.32V17.64L10.76 17.28V9.96H5.6V17.28L7.04 17.64V18H0.2ZM18.3116 17.64L19.7516 17.28V6.72L18.3116 6.36V6H21.4316C22.8716 6 23.5916 6.72 23.5916 8.16V17.28L25.0316 17.64V18H18.3116V17.64ZM21.4316 4.56C20.9516 4.56 20.5516 4.4 20.2316 4.08C19.9116 3.76 19.7516 3.36 19.7516 2.88C19.7516 2.4 19.9116 2 20.2316 1.68C20.5516 1.36 20.9516 1.2 21.4316 1.2C21.9116 1.2 22.3116 1.36 22.6316 1.68C22.9516 2 23.1116 2.4 23.1116 2.88C23.1116 3.36 22.9516 3.76 22.6316 4.08C22.3116 4.4 21.9116 4.56 21.4316 4.56ZM26.9478 3.6C26.9478 2.768 27.1638 2.104 27.5958 1.608C28.0438 1.096 28.5878 0.839999 29.2278 0.839999C29.8678 0.839999 30.4038 1.096 30.8358 1.608C31.2838 2.104 31.5078 2.768 31.5078 3.6L29.5878 12.84H28.8678L26.9478 3.6ZM29.2278 18.24C28.7478 18.24 28.3238 18.056 27.9558 17.688C27.6038 17.304 27.4278 16.848 27.4278 16.32C27.4278 15.792 27.6038 15.344 27.9558 14.976C28.3238 14.592 28.7478 14.4 29.2278 14.4C29.7078 14.4 30.1238 14.592 30.4758 14.976C30.8438 15.344 31.0278 15.792 31.0278 16.32C31.0278 16.848 30.8438 17.304 30.4758 17.688C30.1238 18.056 29.7078 18.24 29.2278 18.24ZM40.8641 18V17.64L42.3041 17.28V1.92L40.8641 1.56V1.2H47.7041V1.56L46.2641 1.92V17.28L47.7041 17.64V18H40.8641ZM50.5784 6.84C50.9144 6.728 51.2504 6.544 51.5864 6.288C52.2744 5.776 52.6984 5.08 52.8584 4.2L52.5464 4.392C52.3384 4.504 52.0824 4.56 51.7784 4.56C51.2984 4.56 50.8744 4.384 50.5064 4.032C50.1544 3.664 49.9784 3.24 49.9784 2.76C49.9784 2.28 50.1544 1.864 50.5064 1.512C50.8744 1.144 51.2984 0.959999 51.7784 0.959999C52.3384 0.959999 52.7944 1.16 53.1464 1.56C53.5144 1.944 53.6984 2.464 53.6984 3.12C53.6984 4.592 53.2184 5.744 52.2584 6.576C51.8424 6.96 51.3624 7.248 50.8184 7.44L50.5784 6.84ZM55.7413 17.64L57.1813 17.28V6.72L55.7413 6.36V6H57.9013C58.8453 6 59.5893 6.304 60.1333 6.912C60.3413 7.152 60.5173 7.448 60.6613 7.8C60.9013 7.352 61.1573 6.992 61.4293 6.72C62.1493 6 62.9733 5.64 63.9013 5.64C64.8293 5.64 65.6453 5.848 66.3493 6.264C67.0533 6.664 67.5973 7.216 67.9813 7.92C68.2213 7.456 68.4773 7.08 68.7493 6.792C69.4853 6.024 70.3093 5.64 71.2213 5.64C72.0693 5.64 72.8293 5.816 73.5013 6.168C74.1893 6.52 74.7173 7 75.0853 7.608C75.4693 8.216 75.6613 8.88 75.6613 9.6V17.28L77.1013 17.64V18H73.9813C72.5413 18 71.8213 17.28 71.8213 15.84V9.6C71.8213 8.56 71.6613 7.784 71.3413 7.272C71.0213 6.744 70.6613 6.48 70.2613 6.48C69.7973 6.48 69.3253 6.8 68.8453 7.44C68.6533 7.744 68.4852 8.064 68.3412 8.4V17.28L69.7812 17.64V18H63.0613V17.64L64.5013 17.28V9.6C64.5013 8.56 64.3413 7.784 64.0213 7.272C63.7013 6.744 63.3413 6.48 62.9413 6.48C62.4773 6.48 62.0053 6.8 61.5253 7.44C61.3333 7.744 61.1653 8.064 61.0213 8.4V17.28L62.4613 17.64V18H55.7413V17.64ZM85.5125 17.64L86.9525 17.28V1.92L85.5125 1.56V1.2H91.8725C94.5925 1.2 96.5525 1.616 97.7525 2.448C98.9525 3.264 99.5525 4.408 99.5525 5.88C99.5525 6.872 99.2885 7.68 98.7605 8.304C98.2325 8.912 97.5525 9.368 96.7205 9.672C95.8405 10.008 94.9045 10.184 93.9125 10.2V10.32C94.5045 10.352 95.0245 10.44 95.4725 10.584C96.5925 10.936 97.3525 11.568 97.7525 12.48L99.9125 17.28L101.113 17.64V18H97.7525C96.4405 18 95.4805 17.32 94.8725 15.96L92.4725 10.56H90.9125V17.28L92.5925 17.64V18H85.5125V17.64ZM91.8725 9.96C92.9925 9.96 93.8725 9.608 94.5125 8.904C95.1525 8.2 95.4725 7.192 95.4725 5.88C95.4725 4.568 95.1525 3.56 94.5125 2.856C93.8725 2.152 92.9925 1.8 91.8725 1.8H90.9125V9.96H91.8725ZM104.248 23.16C103.528 23.16 102.968 22.968 102.568 22.584C102.168 22.2 101.968 21.672 101.968 21C101.968 20.392 102.128 19.92 102.448 19.584C102.784 19.248 103.224 19.08 103.768 19.08C103.896 19.08 104.024 19.088 104.152 19.104C104.28 19.136 104.368 19.152 104.416 19.152L104.728 19.2V22.44C105.192 22.36 105.6 22.104 105.952 21.672C106.304 21.24 106.696 20.496 107.128 19.44L107.608 18.24L101.368 6.72L100.168 6.36V6H103.168C104 6 104.656 6.176 105.136 6.528C105.632 6.864 106.056 7.368 106.408 8.04L109.408 13.584L111.928 7.08L110.128 6.36V6H114.568V6.36L112.648 7.08L107.848 19.44C107.336 20.752 106.792 21.696 106.216 22.272C105.64 22.864 104.984 23.16 104.248 23.16ZM118.757 18.36C117.333 18.36 116.237 18.056 115.469 17.448C114.701 16.84 114.317 16.064 114.317 15.12C114.317 14.496 114.453 13.88 114.725 13.272C114.837 12.984 114.981 12.72 115.157 12.48C115.813 12.32 116.525 12.176 117.293 12.048C119.021 11.76 120.549 11.584 121.877 11.52V10.8C121.877 9.024 121.661 7.8 121.229 7.128C120.797 6.456 120.133 6.12 119.237 6.12C118.901 6.12 118.613 6.16 118.373 6.24L118.037 6.36V9.96L117.725 10.032C117.469 10.064 117.253 10.08 117.077 10.08C116.533 10.08 116.093 9.92 115.757 9.6C115.437 9.264 115.277 8.824 115.277 8.28C115.277 7.544 115.645 6.92 116.381 6.408C117.133 5.896 118.245 5.64 119.717 5.64C120.965 5.64 122.037 5.864 122.933 6.312C123.845 6.744 124.533 7.352 124.997 8.136C125.477 8.904 125.717 9.792 125.717 10.8V17.28L127.157 17.64V18H124.997C124.037 18 123.293 17.704 122.765 17.112C122.541 16.872 122.365 16.568 122.237 16.2C122.013 16.6 121.749 16.96 121.445 17.28C120.725 18 119.829 18.36 118.757 18.36ZM119.717 17.52C120.309 17.52 120.845 17.2 121.325 16.56C121.501 16.32 121.685 16 121.877 15.6V12.12C121.141 12.12 120.437 12.16 119.765 12.24C119.269 12.304 118.933 12.344 118.757 12.36C118.677 12.536 118.597 12.776 118.517 13.08C118.357 13.688 118.277 14.288 118.277 14.88C118.277 15.776 118.413 16.44 118.685 16.872C118.957 17.304 119.301 17.52 119.717 17.52ZM128.608 17.64L130.048 17.28V6.72L128.608 6.36V6H130.768C131.712 6 132.456 6.304 133 6.912C133.208 7.152 133.384 7.448 133.528 7.8C133.752 7.384 134.016 7.024 134.32 6.72C135.04 6 135.936 5.64 137.008 5.64C137.904 5.64 138.704 5.832 139.408 6.216C140.128 6.584 140.688 7.072 141.088 7.68C141.488 8.288 141.688 8.928 141.688 9.6V17.28L143.128 17.64V18H140.008C138.568 18 137.848 17.28 137.848 15.84V9.6C137.848 8.592 137.664 7.824 137.296 7.296C136.944 6.752 136.528 6.48 136.048 6.48C135.44 6.48 134.896 6.8 134.416 7.44C134.208 7.712 134.032 8.032 133.888 8.4V17.28L135.328 17.64V18H128.608V17.64ZM146.489 18.24C146.009 18.24 145.585 18.064 145.217 17.712C144.865 17.344 144.689 16.92 144.689 16.44C144.689 15.96 144.865 15.544 145.217 15.192C145.585 14.824 146.009 14.64 146.489 14.64C146.969 14.64 147.385 14.824 147.737 15.192C148.105 15.544 148.289 15.96 148.289 16.44C148.289 16.92 148.105 17.344 147.737 17.712C147.385 18.064 146.969 18.24 146.489 18.24Z" fill="#A586F7"/>
</svg>
