<svg width="247" height="38" viewBox="0 0 247 38" fill="none" xmlns="http://www.w3.org/2000/svg">
<path d="M2.98023e-08 29V28.4L2.4 27.8V2.2L2.98023e-08 1.6V0.999998H11.4V1.6L9 2.2V14.6H17.6V2.2L15.2 1.6V0.999998H26.6V1.6L24.2 2.2V27.8L26.6 28.4V29H15.2V28.4L17.6 27.8V15.6H9V27.8L11.4 28.4V29H2.98023e-08ZM30.1859 28.4L32.5859 27.8V10.2L30.1859 9.6V9H35.3859C37.7859 9 38.9859 10.2 38.9859 12.6V27.8L41.3859 28.4V29H30.1859V28.4ZM35.3859 6.6C34.5859 6.6 33.9193 6.33333 33.3859 5.8C32.8526 5.26667 32.5859 4.6 32.5859 3.8C32.5859 3 32.8526 2.33333 33.3859 1.8C33.9193 1.26667 34.5859 0.999998 35.3859 0.999998C36.1859 0.999998 36.8526 1.26667 37.3859 1.8C37.9193 2.33333 38.1859 3 38.1859 3.8C38.1859 4.6 37.9193 5.26667 37.3859 5.8C36.8526 6.33333 36.1859 6.6 35.3859 6.6ZM44.5797 5C44.5797 3.61333 44.9397 2.50667 45.6597 1.68C46.4064 0.826665 47.313 0.399999 48.3797 0.399999C49.4464 0.399999 50.3397 0.826665 51.0597 1.68C51.8064 2.50667 52.1797 3.61333 52.1797 5L48.9797 20.4H47.7797L44.5797 5ZM48.3797 29.4C47.5797 29.4 46.873 29.0933 46.2597 28.48C45.673 27.84 45.3797 27.08 45.3797 26.2C45.3797 25.32 45.673 24.5733 46.2597 23.96C46.873 23.32 47.5797 23 48.3797 23C49.1797 23 49.873 23.32 50.4597 23.96C51.073 24.5733 51.3797 25.32 51.3797 26.2C51.3797 27.08 51.073 27.84 50.4597 28.48C49.873 29.0933 49.1797 29.4 48.3797 29.4ZM67.7734 29V28.4L70.1734 27.8V2.2L67.7734 1.6V0.999998H79.1734V1.6L76.7734 2.2V27.8L79.1734 28.4V29H67.7734ZM83.9641 10.4C84.5241 10.2133 85.0841 9.90667 85.6441 9.48C86.7907 8.62667 87.4974 7.46666 87.7641 6L87.2441 6.32C86.8974 6.50667 86.4707 6.6 85.9641 6.6C85.1641 6.6 84.4574 6.30667 83.8441 5.72C83.2574 5.10667 82.9641 4.4 82.9641 3.6C82.9641 2.8 83.2574 2.10667 83.8441 1.52C84.4574 0.906665 85.1641 0.599998 85.9641 0.599998C86.8974 0.599998 87.6574 0.933331 88.2441 1.6C88.8574 2.24 89.1641 3.10667 89.1641 4.2C89.1641 6.65333 88.3641 8.57333 86.7641 9.96C86.0707 10.6 85.2707 11.08 84.3641 11.4L83.9641 10.4ZM92.5688 28.4L94.9688 27.8V10.2L92.5688 9.6V9H96.1688C97.7421 9 98.9821 9.50667 99.8888 10.52C100.235 10.92 100.529 11.4133 100.769 12C101.169 11.2533 101.595 10.6533 102.049 10.2C103.249 9 104.622 8.4 106.169 8.4C107.715 8.4 109.075 8.74667 110.249 9.44C111.422 10.1067 112.329 11.0267 112.969 12.2C113.369 11.4267 113.795 10.8 114.249 10.32C115.475 9.04 116.849 8.4 118.369 8.4C119.782 8.4 121.049 8.69333 122.169 9.28C123.315 9.86667 124.195 10.6667 124.809 11.68C125.449 12.6933 125.769 13.8 125.769 15V27.8L128.169 28.4V29H122.969C120.569 29 119.369 27.8 119.369 25.4V15C119.369 13.2667 119.102 11.9733 118.569 11.12C118.035 10.24 117.435 9.8 116.769 9.8C115.995 9.8 115.209 10.3333 114.409 11.4C114.089 11.9067 113.809 12.44 113.569 13V27.8L115.969 28.4V29H104.769V28.4L107.169 27.8V15C107.169 13.2667 106.902 11.9733 106.369 11.12C105.835 10.24 105.235 9.8 104.569 9.8C103.795 9.8 103.009 10.3333 102.209 11.4C101.889 11.9067 101.609 12.44 101.369 13V27.8L103.769 28.4V29H92.5688V28.4ZM142.188 28.4L144.588 27.8V2.2L142.188 1.6V0.999998H152.788C157.321 0.999998 160.588 1.69333 162.588 3.08C164.588 4.44 165.588 6.34667 165.588 8.8C165.588 10.4533 165.148 11.8 164.268 12.84C163.388 13.8533 162.254 14.6133 160.868 15.12C159.401 15.68 157.841 15.9733 156.188 16V16.2C157.174 16.2533 158.041 16.4 158.788 16.64C160.654 17.2267 161.921 18.28 162.588 19.8L166.188 27.8L168.188 28.4V29H162.588C160.401 29 158.801 27.8667 157.788 25.6L153.788 16.6H151.188V27.8L153.988 28.4V29H142.188V28.4ZM152.788 15.6C154.654 15.6 156.121 15.0133 157.188 13.84C158.254 12.6667 158.788 10.9867 158.788 8.8C158.788 6.61333 158.254 4.93333 157.188 3.76C156.121 2.58667 154.654 2 152.788 2H151.188V15.6H152.788ZM173.414 37.6C172.214 37.6 171.281 37.28 170.614 36.64C169.947 36 169.614 35.12 169.614 34C169.614 32.9867 169.881 32.2 170.414 31.64C170.974 31.08 171.707 30.8 172.614 30.8C172.827 30.8 173.041 30.8133 173.254 30.84C173.467 30.8933 173.614 30.92 173.694 30.92L174.214 31V36.4C174.987 36.2667 175.667 35.84 176.254 35.12C176.841 34.4 177.494 33.16 178.214 31.4L179.014 29.4L168.614 10.2L166.614 9.6V9H171.614C173.001 9 174.094 9.29333 174.894 9.88C175.721 10.44 176.427 11.28 177.014 12.4L182.014 21.64L186.214 10.8L183.214 9.6V9H190.614V9.6L187.414 10.8L179.414 31.4C178.561 33.5867 177.654 35.16 176.694 36.12C175.734 37.1067 174.641 37.6 173.414 37.6ZM197.595 29.6C195.222 29.6 193.395 29.0933 192.115 28.08C190.835 27.0667 190.195 25.7733 190.195 24.2C190.195 23.16 190.422 22.1333 190.875 21.12C191.062 20.64 191.302 20.2 191.595 19.8C192.689 19.5333 193.875 19.2933 195.155 19.08C198.035 18.6 200.582 18.3067 202.795 18.2V17C202.795 14.04 202.435 12 201.715 10.88C200.995 9.76 199.889 9.2 198.395 9.2C197.835 9.2 197.355 9.26667 196.955 9.4L196.395 9.6V15.6L195.875 15.72C195.449 15.7733 195.089 15.8 194.795 15.8C193.889 15.8 193.155 15.5333 192.595 15C192.062 14.44 191.795 13.7067 191.795 12.8C191.795 11.5733 192.409 10.5333 193.635 9.68C194.889 8.82667 196.742 8.4 199.195 8.4C201.275 8.4 203.062 8.77333 204.555 9.52C206.075 10.24 207.222 11.2533 207.995 12.56C208.795 13.84 209.195 15.32 209.195 17V27.8L211.595 28.4V29H207.995C206.395 29 205.155 28.5067 204.275 27.52C203.902 27.12 203.609 26.6133 203.395 26C203.022 26.6667 202.582 27.2667 202.075 27.8C200.875 29 199.382 29.6 197.595 29.6ZM199.195 28.2C200.182 28.2 201.075 27.6667 201.875 26.6C202.169 26.2 202.475 25.6667 202.795 25V19.2C201.569 19.2 200.395 19.2667 199.275 19.4C198.449 19.5067 197.889 19.5733 197.595 19.6C197.462 19.8933 197.329 20.2933 197.195 20.8C196.929 21.8133 196.795 22.8133 196.795 23.8C196.795 25.2933 197.022 26.4 197.475 27.12C197.929 27.84 198.502 28.2 199.195 28.2ZM214.014 28.4L216.414 27.8V10.2L214.014 9.6V9H217.614C219.187 9 220.427 9.50667 221.334 10.52C221.681 10.92 221.974 11.4133 222.214 12C222.587 11.3067 223.027 10.7067 223.534 10.2C224.734 9 226.227 8.4 228.014 8.4C229.507 8.4 230.841 8.72 232.014 9.36C233.214 9.97333 234.147 10.7867 234.814 11.8C235.481 12.8133 235.814 13.88 235.814 15V27.8L238.214 28.4V29H233.014C230.614 29 229.414 27.8 229.414 25.4V15C229.414 13.32 229.107 12.04 228.494 11.16C227.907 10.2533 227.214 9.8 226.414 9.8C225.401 9.8 224.494 10.3333 223.694 11.4C223.347 11.8533 223.054 12.3867 222.814 13V27.8L225.214 28.4V29H214.014V28.4ZM243.816 29.4C243.016 29.4 242.309 29.1067 241.696 28.52C241.109 27.9067 240.816 27.2 240.816 26.4C240.816 25.6 241.109 24.9067 241.696 24.32C242.309 23.7067 243.016 23.4 243.816 23.4C244.616 23.4 245.309 23.7067 245.896 24.32C246.509 24.9067 246.816 25.6 246.816 26.4C246.816 27.2 246.509 27.9067 245.896 28.52C245.309 29.1067 244.616 29.4 243.816 29.4Z" fill="#A586F7"/>
</svg>
