<svg width="282" height="63" viewBox="0 0 282 63" fill="none" xmlns="http://www.w3.org/2000/svg">
<path d="M3.264 51.776C3.264 51.776 3.2 51.7333 3.072 51.648C2.944 51.6053 2.77333 51.5627 2.56 51.52C2.38933 51.4773 2.176 51.456 1.92 51.456C1.23733 51.2853 0.746667 50.9013 0.448 50.304C0.149334 49.7493 0.0853338 49.1307 0.256001 48.448C0.426667 48.2773 0.554667 47.9147 0.64 47.36C0.725334 46.8053 0.768001 46.3573 0.768001 46.016C0.938667 45.6747 1.04533 45.44 1.088 45.312C1.13067 45.1413 1.23733 44.7147 1.408 44.032C1.536 43.3067 1.74933 42.304 2.048 41.024C2.38933 39.7013 2.752 38.2933 3.136 36.8C3.56267 35.3067 3.968 33.8773 4.352 32.512C4.736 31.1467 5.07733 29.9947 5.376 29.056C5.71733 28.1173 5.952 27.584 6.08 27.456C6.08 27.456 6.08 27.392 6.08 27.264C6.08 27.0933 6.08 26.9227 6.08 26.752C6.08 26.752 6.10133 26.56 6.144 26.176C6.22933 25.7493 6.44267 25.28 6.784 24.768C6.95467 24.2987 7.104 23.7867 7.232 23.232C7.36 22.6773 7.424 22.3147 7.424 22.144C7.59467 21.9307 7.82933 21.4187 8.128 20.608C8.46933 19.7547 8.78933 18.9227 9.088 18.112C9.344 17.4293 9.62133 16.704 9.92 15.936C10.2613 15.168 10.5387 14.5067 10.752 13.952C11.008 13.3973 11.136 13.12 11.136 13.12C11.136 12.9493 11.136 12.864 11.136 12.864C11.136 12.8213 11.136 12.8 11.136 12.8C11.3067 12.6293 11.712 11.776 12.352 10.24C13.0347 8.66133 13.952 6.63466 15.104 4.16C15.2747 3.81866 15.488 3.43466 15.744 3.008C16 2.58133 16.128 2.28266 16.128 2.112C16.3413 1.77066 16.64 1.62133 17.024 1.66399C17.408 1.66399 17.792 1.79199 18.176 2.048C18.6027 2.304 18.9227 2.66666 19.136 3.13599L19.776 4.16L17.472 8.76799C16.7893 9.96266 16.2133 11.0507 15.744 12.032C15.3173 13.0133 15.104 13.5893 15.104 13.76C15.104 13.76 14.976 14.1013 14.72 14.784C14.464 15.4667 14.1653 16.2773 13.824 17.216C13.4827 18.1547 13.184 19.008 12.928 19.776C12.4587 21.0987 12.0107 22.1867 11.584 23.04C11.2 23.8933 11.008 24.4053 11.008 24.576C11.008 24.4907 11.4773 24.4267 12.416 24.384C13.3547 24.3413 14.5493 24.32 16 24.32C17.4507 24.32 18.9227 24.32 20.416 24.32C21.952 24.2773 23.296 24.256 24.448 24.256C25.6427 24.2133 26.4533 24.1493 26.88 24.064L30.208 23.744L32.384 17.152C32.7253 15.9573 33.1733 14.5067 33.728 12.8C34.2827 11.0933 34.7733 9.64266 35.2 8.44799C35.8827 6.48533 36.416 5.26933 36.8 4.8C37.184 4.33066 37.632 4.09599 38.144 4.09599C38.272 4.09599 38.4427 4.13866 38.656 4.224C38.912 4.26666 39.1467 4.37333 39.36 4.54399C39.616 4.672 39.7867 4.864 39.872 5.12C40.384 5.58933 40.6187 6.12266 40.576 6.71999C40.576 7.31733 40.2347 8.10666 39.552 9.08799C38.8693 10.24 38.2933 11.4987 37.824 12.864C37.3973 14.1867 37.0133 15.2747 36.672 16.128C36.672 16.64 36.608 17.0667 36.48 17.408C36.352 17.7067 36.2027 17.9413 36.032 18.112C35.9467 18.1973 35.776 18.5173 35.52 19.072C35.264 19.6267 35.0293 20.1813 34.816 20.736C34.6027 21.2907 34.496 21.632 34.496 21.76C34.496 22.0587 34.432 22.4213 34.304 22.848C34.176 23.2747 34.0267 23.5733 33.856 23.744C33.7707 24 33.5787 24.64 33.28 25.664C32.9813 26.688 32.64 27.904 32.256 29.312C31.872 30.6773 31.4667 32.0213 31.04 33.344C30.6133 34.624 30.2293 35.6907 29.888 36.544C29.888 36.8427 29.7813 37.2267 29.568 37.696C29.3547 38.1227 29.248 38.5067 29.248 38.848C29.0773 39.36 28.864 40 28.608 40.768C28.352 41.536 28.224 42.0267 28.224 42.24C28.0107 43.2213 27.776 44.224 27.52 45.248C27.3067 46.272 27.1147 47.1467 26.944 47.872C26.816 48.64 26.752 49.088 26.752 49.216C26.5813 49.3867 26.3253 49.408 25.984 49.28C25.6427 49.152 25.2373 49.0027 24.768 48.832C23.9573 48.3627 23.4667 47.8507 23.296 47.296C23.168 46.784 23.3387 46.0373 23.808 45.056C24.0213 44.7147 24.2773 43.8827 24.576 42.56C24.9173 41.1947 25.2587 39.8507 25.6 38.528C25.856 37.888 26.1333 37.0347 26.432 35.968C26.7307 34.8587 27.0293 33.7493 27.328 32.64C27.6267 31.488 27.8827 30.528 28.096 29.76C28.3093 28.9493 28.4587 28.5013 28.544 28.416C28.544 28.2453 28.544 28.096 28.544 27.968C28.544 27.84 28.544 27.776 28.544 27.776C28.4587 27.6907 27.9253 27.6267 26.944 27.584C25.9627 27.4987 24.7467 27.4773 23.296 27.52C21.8453 27.52 20.3307 27.5627 18.752 27.648C17.216 27.6907 15.8293 27.7973 14.592 27.968C14.1227 27.968 13.5893 27.968 12.992 27.968C12.3947 27.968 11.9253 27.968 11.584 27.968C11.1147 27.968 10.7093 27.968 10.368 27.968C10.0693 27.968 9.92 27.968 9.92 27.968C9.87733 28.096 9.728 28.544 9.472 29.312C9.216 30.08 8.91733 31.0187 8.576 32.128C8.23467 33.1947 7.872 34.304 7.488 35.456C7.14667 36.5653 6.848 37.5893 6.592 38.528C6.37867 39.424 6.22933 40.064 6.144 40.448C5.97333 41.216 5.73867 42.176 5.44 43.328C5.184 44.48 4.88533 45.6533 4.544 46.848C4.24533 48.0853 3.968 49.152 3.712 50.048C3.49867 50.944 3.34933 51.52 3.264 51.776ZM38.7355 44.416C38.3942 44.0747 38.1382 43.648 37.9675 43.136C37.8395 42.624 37.7968 42.112 37.8395 41.6C37.8822 41.088 37.9888 40.6613 38.1595 40.32C38.1595 39.9787 38.2022 39.7227 38.2875 39.552C38.4155 39.3387 38.4582 39.1467 38.4155 38.976C38.3728 38.8053 38.4155 38.5067 38.5435 38.08C38.6715 37.6533 38.7995 37.248 38.9275 36.864C39.2262 36.1813 39.5462 35.3707 39.8875 34.432C40.2288 33.4507 40.5488 32.4907 40.8475 31.552C41.1462 30.6133 41.4022 29.8027 41.6155 29.12C41.8288 28.4373 41.9568 28.0107 41.9995 27.84C41.9995 27.328 42.3408 27.0507 43.0235 27.008C43.5355 26.8373 43.9195 26.8373 44.1755 27.008C44.4315 27.136 44.7728 27.5413 45.1995 28.224C45.5408 28.5653 45.6688 29.0773 45.5835 29.76C45.4982 30.4427 45.2208 31.296 44.7515 32.32C44.5808 32.6613 44.3675 33.152 44.1115 33.792C43.8982 34.432 43.7488 35.008 43.6635 35.52C43.4928 35.8613 43.2795 36.352 43.0235 36.992C42.8102 37.5893 42.6182 38.1653 42.4475 38.72C42.3622 38.9333 42.2768 39.2533 42.1915 39.68C42.1062 40.064 41.9995 40.4907 41.8715 40.96C41.7435 41.3867 41.5728 41.7707 41.3595 42.112C40.9755 43.8613 40.6128 44.8853 40.2715 45.184C39.9728 45.4827 39.4608 45.2267 38.7355 44.416ZM44.9435 18.432C44.7302 18.2187 44.5382 17.92 44.3675 17.536C44.1968 17.1093 44.0902 16.7253 44.0475 16.384C44.0048 16 44.0475 15.808 44.1755 15.808C44.5168 15.7653 44.9222 15.4027 45.3915 14.72C45.8608 14.0373 46.0528 13.44 45.9675 12.928C45.9675 12.7573 46.0315 12.608 46.1595 12.48C46.2875 12.3093 46.4368 12.2027 46.6075 12.16C47.1195 11.8187 47.6102 11.776 48.0795 12.032C48.5915 12.2453 49.0608 12.6933 49.4875 13.376C49.8715 14.1867 49.9782 14.8693 49.8075 15.424C49.6368 15.936 49.1675 16.6613 48.3995 17.6C47.7595 18.4533 47.1622 18.9227 46.6075 19.008C46.0955 19.0933 45.5408 18.9013 44.9435 18.432ZM56.177 35.584C54.9823 35.7973 54.193 35.2213 53.809 33.856C53.425 32.4907 53.5317 30.6133 54.129 28.224C54.385 27.712 54.5983 27.2213 54.769 26.752C54.9397 26.24 55.025 25.8347 55.025 25.536C55.1957 24.9813 55.409 24.3413 55.665 23.616C55.9637 22.848 56.2623 22.144 56.561 21.504C56.8597 20.8213 57.073 20.3733 57.201 20.16C57.3717 20.16 57.5423 20.0107 57.713 19.712C57.9263 19.4133 58.033 19.1147 58.033 18.816C58.033 18.4747 58.097 18.0907 58.225 17.664C58.3957 17.2373 58.5663 16.9387 58.737 16.768C58.737 16.5547 58.8223 16.32 58.993 16.064C59.1637 15.808 59.249 15.5947 59.249 15.424C59.249 15.2533 59.2917 15.104 59.377 14.976C59.505 14.848 59.569 14.6987 59.569 14.528C59.953 13.8453 60.4437 12.8427 61.041 11.52C61.681 10.1547 62.2997 8.72533 62.897 7.23199C63.537 5.73866 64.0703 4.416 64.497 3.264C64.9237 2.112 65.137 1.408 65.137 1.152C65.2223 0.810663 65.3503 0.554662 65.521 0.383995C65.6917 0.213328 65.9477 0.170661 66.289 0.255993C66.4597 0.127995 66.6303 0.0639954 66.801 0.0639954C66.9717 0.0213292 67.1423 -3.8147e-06 67.313 -3.8147e-06C67.313 -3.8147e-06 67.377 0.0853284 67.505 0.255993C67.6757 0.42666 67.9103 0.68266 68.209 1.02399C68.5503 1.32266 68.7423 1.664 68.785 2.048C68.8277 2.43199 68.849 2.87999 68.849 3.39199C68.8063 4.20266 68.5077 5.11999 67.953 6.14399C67.3983 7.168 66.7797 8.29866 66.097 9.536C65.6703 10.3467 65.2437 11.1147 64.817 11.84C64.433 12.5653 64.241 13.0133 64.241 13.184C64.241 13.3547 64.1557 13.6107 63.985 13.952C63.8143 14.2933 63.6223 14.72 63.409 15.232C63.153 15.6587 62.8757 16.1707 62.577 16.768C62.2783 17.3653 62.001 17.92 61.745 18.432C61.5317 18.9013 61.425 19.2 61.425 19.328C61.3823 19.4987 61.3183 19.6693 61.233 19.84C61.1903 20.0107 61.0837 20.1813 60.913 20.352C60.7423 20.352 60.6357 20.48 60.593 20.736C60.593 20.9493 60.593 21.056 60.593 21.056C60.593 21.2267 60.4863 21.632 60.273 22.272C60.1023 22.8693 59.8037 23.5947 59.377 24.448C58.5663 26.7093 57.9903 28.5227 57.649 29.888C57.3077 31.2107 57.0943 32.3413 57.009 33.28C56.9237 34.304 56.8383 34.9013 56.753 35.072C56.7103 35.2427 56.5183 35.4133 56.177 35.584ZM52.721 45.824C51.9103 46.1227 51.2277 46.272 50.673 46.272C50.161 46.2293 49.585 45.9733 48.945 45.504C48.1343 44.736 47.857 43.968 48.113 43.2C48.4117 42.3893 49.1157 41.6 50.225 40.832C50.993 40.3627 51.5477 40.1067 51.889 40.064C52.273 40.0213 52.849 40.1707 53.617 40.512C54.897 41.3227 55.4517 42.2187 55.281 43.2C55.153 44.1813 54.2997 45.056 52.721 45.824ZM84.7945 48.448C84.4958 47.9787 83.8132 47.68 82.7465 47.552C81.7225 47.424 80.4638 47.4027 78.9705 47.488C78.3732 47.5733 77.7972 47.5307 77.2425 47.36C76.6878 47.232 76.2398 46.9973 75.8985 46.656C75.5998 46.3573 75.4932 46.0373 75.5785 45.696C75.6212 45.184 76.0478 44.7787 76.8585 44.48C77.7118 44.1813 79.0558 44.0107 80.8905 43.968L84.2825 43.904L84.9225 42.624C85.0932 42.1547 85.3065 41.4933 85.5625 40.64C85.8185 39.7867 86.0958 38.8693 86.3945 37.888C86.5652 37.2907 86.8212 36.48 87.1625 35.456C87.5038 34.432 87.8665 33.344 88.2505 32.192C88.6345 31.04 88.9758 30.016 89.2745 29.12C89.5732 28.1813 89.7652 27.52 89.8505 27.136C90.0212 26.752 90.2558 26.112 90.5545 25.216C90.8532 24.2773 91.1305 23.3387 91.3865 22.4C91.6852 21.4187 91.8772 20.7147 91.9625 20.288C93.0718 16.9173 93.7972 14.528 94.1385 13.12C94.4798 11.6693 94.5652 10.9227 94.3945 10.88C94.2238 10.88 93.7972 10.9013 93.1145 10.944C92.4745 10.9867 91.7492 11.0507 90.9385 11.136C90.1705 11.1787 89.4665 11.2427 88.8265 11.328C88.2292 11.4133 87.8665 11.4987 87.7385 11.584C87.5252 11.8827 87.1625 11.9467 86.6505 11.776C86.1385 11.6053 85.8185 11.3067 85.6905 10.88C85.6478 10.496 85.6265 10.1973 85.6265 9.98399C85.6692 9.77066 85.7972 9.59999 86.0105 9.472C86.3092 9.21599 86.8852 8.93866 87.7385 8.64C88.5918 8.29866 89.5518 7.99999 90.6185 7.744C91.7278 7.488 92.7732 7.296 93.7545 7.168C94.4798 7.08266 95.2052 6.93333 95.9305 6.71999C96.6558 6.46399 97.2318 6.16533 97.6585 5.82399C98.0425 5.696 98.4052 5.58933 98.7465 5.50399C99.1305 5.41866 99.5145 5.39733 99.8985 5.43999C100.24 5.65333 100.816 5.75999 101.627 5.75999C102.48 5.75999 103.376 5.73866 104.315 5.696C106.704 5.48266 108.304 5.41866 109.115 5.50399C109.968 5.58933 110.544 5.93066 110.843 6.528C111.056 7.33866 111.099 7.97866 110.971 8.44799C110.843 8.87466 110.416 9.06666 109.691 9.02399C109.307 9.10933 108.603 9.19466 107.579 9.27999C106.597 9.32266 105.552 9.36533 104.443 9.40799C101.413 9.664 99.7918 9.96266 99.5785 10.304C99.4078 10.4747 99.2585 10.6453 99.1305 10.816C99.0452 10.9867 98.9172 11.1787 98.7465 11.392C98.7892 11.5627 98.6825 12.1173 98.4265 13.056C98.2132 13.952 97.9358 14.8693 97.5945 15.808C97.4238 16.3627 97.1678 17.152 96.8265 18.176C96.4852 19.2 96.1225 20.2667 95.7385 21.376C95.3972 22.4427 95.0772 23.424 94.7785 24.32C94.4798 25.1733 94.2665 25.7493 94.1385 26.048C93.9678 26.432 93.8185 26.8587 93.6905 27.328C93.6052 27.7547 93.5412 28.0747 93.4985 28.288C92.9012 30.3787 92.3678 32.1493 91.8985 33.6C91.4718 35.0507 91.0665 36.3307 90.6825 37.44C90.3412 38.5067 90.0212 39.552 89.7225 40.576C89.4238 41.5573 89.1038 42.6453 88.7625 43.84C88.7625 43.84 89.0825 43.8187 89.7225 43.776C90.4052 43.6907 91.3012 43.6053 92.4105 43.52C94.4158 43.3067 95.8452 43.1787 96.6985 43.136C97.5945 43.0933 98.1918 43.1573 98.4905 43.328C98.7892 43.456 99.0025 43.712 99.1305 44.096C99.9838 45.248 100.091 46.0373 99.4505 46.464C98.8105 46.8907 97.2958 47.0827 94.9065 47.04C92.6878 47.1253 90.9812 47.1893 89.7865 47.232C88.6345 47.3173 87.8238 47.424 87.3545 47.552C86.9278 47.68 86.6718 47.8933 86.5865 48.192C86.5865 48.5333 86.4158 48.704 86.0745 48.704C85.7332 48.704 85.3065 48.6187 84.7945 48.448ZM111.892 17.984C111.465 18.0267 111.188 18.0267 111.06 17.984C110.932 17.9413 110.718 17.792 110.42 17.536C110.377 17.2373 110.42 16.96 110.548 16.704C110.676 16.448 110.846 16.1707 111.06 15.872C111.572 15.0187 112.148 14.016 112.788 12.864C113.47 11.6693 113.918 10.752 114.132 10.112C114.132 9.94133 114.153 9.79199 114.196 9.66399C113.47 9.79199 112.724 9.536 111.956 8.896C111.145 8.128 110.868 7.36 111.124 6.592C111.422 5.78133 112.126 4.992 113.236 4.224C114.004 3.75466 114.558 3.49866 114.9 3.45599C115.284 3.41333 115.86 3.56266 116.628 3.904C117.353 4.33066 117.844 4.82133 118.1 5.376C118.398 5.88799 118.441 6.42133 118.228 6.97599C118.1 7.95733 117.865 8.87466 117.524 9.728C117.225 10.5813 116.948 11.4133 116.692 12.224C116.436 13.1627 116.009 14.0373 115.412 14.848C114.814 15.6587 114.153 16.4907 113.428 17.344C113.47 17.5147 113.342 17.6213 113.044 17.664C112.745 17.7067 112.361 17.8133 111.892 17.984ZM140.896 43.776C140.682 43.6907 140.362 43.4773 139.936 43.136C139.509 42.7947 139.146 42.2187 138.848 41.408C138.549 40.5547 138.4 39.3813 138.4 37.888C138.442 36.608 138.464 35.6053 138.464 34.88C138.506 34.1547 138.357 33.792 138.016 33.792C137.674 33.792 137.013 34.1333 136.032 34.816C135.093 35.456 134.005 36.3307 132.768 37.44C131.53 38.5493 130.272 39.7867 128.992 41.152C128.565 41.6213 128.138 42.0693 127.712 42.496C127.328 42.88 126.944 43.136 126.56 43.264C126.176 43.3493 125.728 43.2 125.216 42.816L124.512 42.24C124.298 42.0267 124.17 41.8133 124.128 41.6C124.085 41.344 124.106 41.0667 124.192 40.768L125.664 36.544C126.346 35.008 126.816 33.8987 127.072 33.216C127.328 32.4907 127.456 32.0427 127.456 31.872C127.456 31.6587 127.392 31.5733 127.264 31.616C126.922 31.6587 126.41 31.872 125.728 32.256C125.045 32.5973 124.597 32.9387 124.384 33.28C124.213 33.28 123.957 33.472 123.616 33.856C123.274 34.24 122.848 34.6027 122.336 34.944C122.037 35.456 121.44 36.1173 120.544 36.928C119.69 37.7387 118.837 38.5707 117.984 39.424C117.429 39.8933 116.874 40.4693 116.32 41.152C115.808 41.8347 115.36 42.432 114.976 42.944C114.634 43.456 114.4 43.712 114.272 43.712C113.717 43.712 113.205 43.5627 112.736 43.264C112.309 42.9653 111.989 42.4747 111.776 41.792C111.434 41.0667 111.434 40.064 111.776 38.784C112.117 37.4613 112.501 35.7547 112.928 33.664C113.098 33.024 113.205 32.5547 113.248 32.256C113.29 31.9573 113.354 31.6587 113.44 31.36C113.568 31.0187 113.76 30.5067 114.016 29.824C114.314 29.1413 114.762 28.1173 115.36 26.752C115.658 25.9413 115.829 25.344 115.872 24.96C115.957 24.5333 116 24.2347 116 24.064C116 23.6373 116.106 23.2747 116.32 22.976C116.576 22.6773 116.874 22.464 117.216 22.336C117.557 22.208 117.877 22.1867 118.176 22.272C118.645 22.3573 119.05 22.592 119.392 22.976C119.776 23.36 119.989 23.8933 120.032 24.576C120.074 25.088 120.032 25.5573 119.904 25.984C119.776 26.368 119.648 26.7307 119.52 27.072L118.816 28.8C118.602 29.2693 118.325 29.952 117.984 30.848C117.642 31.744 117.344 32.576 117.088 33.344C116.832 34.0693 116.704 34.496 116.704 34.624C116.746 34.752 116.896 34.7307 117.152 34.56C117.408 34.3467 117.728 34.0693 118.112 33.728C118.538 33.344 118.965 32.9813 119.392 32.64C120.288 31.7867 121.29 30.976 122.4 30.208C123.552 29.3973 124.64 28.7147 125.664 28.16C126.688 27.6053 127.477 27.2427 128.032 27.072C128.757 27.072 129.248 27.2 129.504 27.456C129.802 27.712 130.293 28.1813 130.976 28.864C131.274 29.1627 131.445 29.5467 131.488 30.016C131.53 30.4853 131.509 30.9333 131.424 31.36C131.381 31.5307 131.253 31.9573 131.04 32.64C130.826 33.28 130.613 33.8987 130.4 34.496C130.229 35.0933 130.144 35.392 130.144 35.392C130.144 35.392 130.378 35.1787 130.848 34.752C131.36 34.3253 131.914 33.8773 132.512 33.408C133.109 32.896 133.557 32.512 133.856 32.256C135.52 30.976 136.97 30.1653 138.208 29.824C139.445 29.4827 140.448 29.9307 141.216 31.168C141.728 31.6373 141.984 32.1493 141.984 32.704C142.026 33.2587 142.048 34.2187 142.048 35.584C142.09 36.1387 142.133 36.8 142.176 37.568C142.218 38.336 142.261 39.04 142.304 39.68C142.389 40.2773 142.474 40.64 142.56 40.768C142.688 40.9387 142.922 41.088 143.264 41.216C143.648 41.3013 144.138 41.3867 144.736 41.472C145.376 41.5573 145.76 41.8347 145.888 42.304C146.016 42.7733 145.738 43.2213 145.056 43.648C144.416 44.032 143.712 44.2027 142.944 44.16C142.176 44.1173 141.493 43.9893 140.896 43.776ZM165.904 50.304C165.733 50.7307 165.413 50.9653 164.944 51.008C164.517 51.0507 163.941 50.7947 163.216 50.24C162.704 49.728 162.363 49.3227 162.192 49.024C162.064 48.768 162.149 48.2987 162.448 47.616C162.747 46.976 163.259 45.824 163.984 44.16C164.155 43.136 164.453 42.112 164.88 41.088C165.307 40.0213 165.627 39.2747 165.84 38.848C166.011 38.2507 166.352 37.2693 166.864 35.904C167.419 34.496 168.037 32.9387 168.72 31.232C169.445 29.5253 170.128 27.9253 170.768 26.432C171.408 24.896 171.877 23.744 172.176 22.976C172.901 21.2693 173.648 19.4773 174.416 17.6C175.184 15.7227 176.229 13.3547 177.552 10.496C177.723 10.0693 177.808 9.62133 177.808 9.152C177.851 8.68266 177.509 8.44799 176.784 8.44799C176.357 7.97866 176.123 7.50933 176.08 7.03999C176.037 6.52799 176.251 6.16533 176.72 5.952L180.048 4.60799C182.053 4.13866 184.101 4.01066 186.192 4.224C188.325 4.39466 190.331 4.97066 192.208 5.952C194.256 7.14666 195.707 8.36266 196.56 9.59999C197.413 10.7947 197.84 12.0107 197.84 13.248C197.883 14.4853 197.669 15.7013 197.2 16.896C196.859 17.792 196.197 18.7733 195.216 19.84C194.277 20.9067 193.168 21.9733 191.888 23.04C190.651 24.1067 189.349 25.088 187.984 25.984C186.661 26.8373 185.424 27.4987 184.272 27.968C183.205 28.48 182.096 28.928 180.944 29.312C179.792 29.696 178.597 30.08 177.36 30.464C176.677 30.6347 175.867 30.72 174.928 30.72C173.989 30.72 173.285 30.6347 172.816 30.464L171.728 33.472C171.301 35.008 170.555 37.2907 169.488 40.32C168.464 43.3493 167.269 46.6773 165.904 50.304ZM191.312 51.008C190.971 51.136 190.565 51.1787 190.096 51.136C189.669 51.0933 188.965 50.752 187.984 50.112C186.107 49.0027 184.229 47.6587 182.352 46.08C180.475 44.5013 178.363 42.368 176.016 39.68C175.12 38.6133 174.352 37.632 173.712 36.736C173.115 35.84 172.475 34.5813 171.792 32.96L170.896 29.504L172.624 28.544L174.928 30.848C175.611 32.3413 176.485 33.7707 177.552 35.136C178.661 36.5013 179.685 37.7173 180.624 38.784C181.392 39.68 182.437 40.768 183.76 42.048C185.083 43.2853 186.491 44.48 187.984 45.632C189.477 46.784 190.821 47.6587 192.016 48.256C192.272 48.4693 192.357 48.7893 192.272 49.216C192.187 49.6427 192.037 50.0267 191.824 50.368C191.653 50.752 191.483 50.9653 191.312 51.008ZM174.8 27.2C175.781 27.1147 176.933 26.88 178.256 26.496C179.579 26.0693 180.901 25.5787 182.224 25.024C183.461 24.4267 184.763 23.7227 186.128 22.912C187.536 22.0587 188.837 21.12 190.032 20.096C191.227 19.072 192.187 18.0053 192.912 16.896C193.68 15.7867 194.021 14.6773 193.936 13.568C193.936 13.0133 193.723 12.4373 193.296 11.84C192.869 11.2427 192.357 10.7093 191.76 10.24C191.163 9.77066 190.587 9.45066 190.032 9.27999C188.325 8.85333 186.917 8.576 185.808 8.44799C184.699 8.32 183.845 8.40533 183.248 8.70399C182.651 8.95999 182.245 9.51466 182.032 10.368C182.032 10.496 181.861 10.9227 181.52 11.648C181.179 12.3733 180.752 13.2693 180.24 14.336C179.771 15.4027 179.301 16.5333 178.832 17.728C177.595 20.2453 176.656 22.1653 176.016 23.488C175.376 24.768 174.971 25.664 174.8 26.176C174.629 26.688 174.629 27.0293 174.8 27.2ZM196.07 61.888C195.131 62.0587 194.491 62.08 194.15 61.952C193.809 61.824 193.339 61.6107 192.742 61.312C192.273 60.9707 191.91 60.7147 191.654 60.544C191.398 60.3733 191.27 60.2027 191.27 60.032C191.27 59.904 191.313 59.7547 191.398 59.584C191.483 59.456 191.633 59.328 191.846 59.2C192.102 59.1147 192.443 59.072 192.87 59.072C193.169 59.2427 193.659 59.328 194.342 59.328C195.067 59.328 195.515 59.2427 195.686 59.072C195.686 59.072 195.878 58.944 196.262 58.688C196.689 58.4747 197.243 58.304 197.926 58.176C199.249 57.536 200.422 56.7253 201.446 55.744C202.47 54.7627 203.451 53.4827 204.39 51.904C204.774 51.3067 205.179 50.6027 205.606 49.792C206.033 49.024 206.331 48.256 206.502 47.488C206.843 46.6347 207.227 45.4827 207.654 44.032C208.123 42.5813 208.529 41.152 208.87 39.744C209.211 38.2933 209.403 37.2053 209.446 36.48C209.702 34.0907 210.107 31.8933 210.662 29.888C211.259 27.84 211.771 25.5573 212.198 23.04C212.454 22.4427 212.646 22.1013 212.774 22.016C212.902 21.888 213.179 21.824 213.606 21.824C214.075 21.824 214.417 21.8667 214.63 21.952C214.886 21.9947 215.163 22.2507 215.462 22.72C215.889 23.5307 216.038 24.4907 215.91 25.6C215.825 26.6667 215.505 27.6053 214.95 28.416C214.523 29.0133 214.139 29.952 213.798 31.232C213.499 32.4693 213.201 34.0267 212.902 35.904C212.689 36.8427 212.454 37.952 212.198 39.232C211.985 40.4693 211.75 41.856 211.494 43.392C211.323 43.8187 211.089 44.48 210.79 45.376C210.491 46.2293 210.299 46.912 210.214 47.424C210.171 47.5947 210.043 47.936 209.83 48.448C209.617 48.96 209.403 49.4507 209.19 49.92C208.977 50.432 208.827 50.7733 208.742 50.944C207.078 54.4 205.179 57.0453 203.046 58.88C200.913 60.7147 198.587 61.7173 196.07 61.888ZM200.934 43.328C200.465 43.328 199.974 43.072 199.462 42.56C198.993 42.048 198.673 41.6427 198.502 41.344C198.331 40.9173 198.118 40.512 197.862 40.128C197.606 39.744 197.414 39.2747 197.286 38.72C197.201 38.1653 197.243 37.4827 197.414 36.672C197.585 36.1173 197.819 35.328 198.118 34.304C198.459 33.2373 198.822 32.0853 199.206 30.848C199.633 29.6107 200.059 28.3947 200.486 27.2C200.955 25.9627 201.382 24.8747 201.766 23.936C202.15 22.9547 202.491 22.2507 202.79 21.824C203.046 21.4827 203.323 21.2693 203.622 21.184C203.963 21.0987 204.305 21.1413 204.646 21.312C204.987 21.44 205.286 21.7173 205.542 22.144C206.011 22.7413 206.203 23.2533 206.118 23.68C206.033 24.1067 205.649 24.9387 204.966 26.176C204.795 26.6453 204.582 27.1573 204.326 27.712C204.07 28.224 203.942 28.5653 203.942 28.736C203.899 28.8213 203.814 29.12 203.686 29.632C203.601 30.1013 203.494 30.5493 203.366 30.976C203.238 31.4027 203.11 31.616 202.982 31.616C202.811 31.7867 202.619 32.2773 202.406 33.088C202.193 33.856 202.001 34.7307 201.83 35.712C201.659 36.6507 201.553 37.4827 201.51 38.208C201.467 38.8907 201.531 39.232 201.702 39.232C203.025 39.232 204.39 38.72 205.798 37.696C207.249 36.672 208.699 35.1787 210.15 33.216L211.238 37.76C210.641 38.0587 210.086 38.3787 209.574 38.72C209.062 39.0187 208.593 39.3813 208.166 39.808C208.038 39.9787 207.739 40.2133 207.27 40.512C206.801 40.8107 206.331 41.088 205.862 41.344C205.435 41.5573 205.158 41.664 205.03 41.664C205.03 41.664 204.966 41.6853 204.838 41.728C204.753 41.728 204.71 41.8133 204.71 41.984C204.71 42.0693 204.433 42.24 203.878 42.496C203.323 42.7093 202.747 42.9013 202.15 43.072C201.553 43.2427 201.147 43.328 200.934 43.328ZM219.355 44.16C219.184 43.8187 218.971 43.5627 218.715 43.392C218.459 43.1787 218.331 42.9867 218.331 42.816C218.331 42.6453 218.309 42.4747 218.267 42.304C218.267 42.0907 218.181 41.8987 218.011 41.728C217.797 41.472 217.819 40.896 218.075 40C218.331 39.0613 218.757 37.9307 219.355 36.608C219.952 35.2427 220.656 33.8133 221.467 32.32C221.808 31.9787 222.149 31.5307 222.491 30.976C222.832 30.4213 223.088 30.0587 223.259 29.888C223.259 29.7173 223.323 29.568 223.451 29.44C223.579 29.2693 223.728 29.184 223.899 29.184V28.8C223.899 28.5867 224.091 28.224 224.475 27.712C224.901 27.2 225.413 26.6453 226.011 26.048C226.608 25.408 227.227 24.8107 227.867 24.256C228.507 23.6587 229.04 23.232 229.467 22.976C230.363 22.3787 231.28 22.016 232.219 21.888C233.2 21.76 234.032 21.9733 234.715 22.528C234.843 22.656 235.056 22.8693 235.355 23.168C235.653 23.4667 235.995 23.808 236.379 24.192C236.805 24.5333 237.232 24.896 237.659 25.28L240.027 27.392L238.875 30.592C238.32 32.2987 238.171 33.792 238.427 35.072C238.725 36.352 239.152 37.4613 239.707 38.4C239.92 38.8693 240.347 39.3173 240.987 39.744C241.669 40.1707 242.309 40.4267 242.907 40.512C243.248 40.5547 243.568 40.6827 243.867 40.896C244.165 41.1093 244.315 41.4507 244.315 41.92C244.315 42.3467 244.229 42.688 244.059 42.944C243.888 43.2 243.589 43.3707 243.163 43.456C241.755 43.6267 240.432 43.2853 239.195 42.432C238 41.5787 236.891 40.1707 235.867 38.208C235.696 37.952 235.461 37.4827 235.163 36.8C234.907 36.0747 234.757 35.6053 234.715 35.392C234.544 35.6053 234.224 36.0107 233.755 36.608C233.285 37.1627 232.923 37.568 232.667 37.824C229.637 40.896 227.013 42.9653 224.795 44.032C222.619 45.056 220.805 45.0987 219.355 44.16ZM221.659 40.576C221.659 40.8747 222.107 40.8747 223.003 40.576C223.941 40.2347 224.944 39.6373 226.011 38.784C227.461 37.5467 228.912 36.1813 230.363 34.688C231.856 33.1947 233.051 31.808 233.947 30.528L235.355 28.224C234.928 27.2427 234.459 26.5813 233.947 26.24C233.477 25.856 233.072 25.664 232.731 25.664C232.176 25.664 231.344 26.176 230.235 27.2C229.168 28.224 228.016 29.5893 226.779 31.296C225.541 33.0027 224.368 34.88 223.259 36.928C222.832 37.7813 222.448 38.6133 222.107 39.424C221.808 40.192 221.659 40.576 221.659 40.576ZM249.916 43.648C249.745 43.648 249.489 43.5413 249.148 43.328C248.849 43.072 248.615 42.8587 248.444 42.688C248.145 42.3467 247.953 42.0053 247.868 41.664C247.825 41.3227 247.804 40.5547 247.804 39.36C247.804 37.9947 248.081 36.5227 248.636 34.944C249.191 33.3227 250.129 31.0613 251.452 28.16L253.564 23.68C253.735 23.3387 253.884 23.0827 254.012 22.912C254.183 22.7413 254.332 22.5707 254.46 22.4C254.631 22.4 254.78 22.4 254.908 22.4C255.036 22.4 255.1 22.4 255.1 22.4C255.441 22.4 255.783 22.6133 256.124 23.04C256.465 23.424 256.721 23.8507 256.892 24.32C256.892 24.8747 256.807 25.4507 256.636 26.048C256.508 26.6453 255.996 27.5413 255.1 28.736C254.801 29.2053 254.396 29.9947 253.884 31.104C253.415 32.2133 253.095 33.1733 252.924 33.984C252.881 34.0267 252.796 34.2187 252.668 34.56C252.54 34.8587 252.391 35.2 252.22 35.584C252.092 35.968 251.943 36.3307 251.772 36.672L251.452 38.08L255.74 33.664C257.745 31.6587 259.367 30.2293 260.604 29.376C261.841 28.5227 262.823 28.16 263.548 28.288C264.273 28.416 264.892 28.992 265.404 30.016C265.703 30.4853 265.916 30.912 266.044 31.296C266.215 31.6373 266.321 32.1067 266.364 32.704C266.407 33.3013 266.364 34.1973 266.236 35.392V39.36C266.876 39.1893 267.388 39.04 267.772 38.912C268.156 38.7413 268.561 38.5707 268.988 38.4C269.372 38.2293 269.82 38.08 270.332 37.952C270.844 37.7813 271.484 37.6747 272.252 37.632C272.209 38.1867 272.017 38.784 271.676 39.424C271.335 40.0213 270.908 40.5973 270.396 41.152C269.884 41.7067 269.308 42.1547 268.668 42.496C268.071 42.8373 267.473 43.008 266.876 43.008C266.321 43.008 265.703 42.7307 265.02 42.176C264.337 41.6213 263.847 41.0027 263.548 40.32C263.377 39.8507 263.271 39.3387 263.228 38.784C263.228 38.2293 263.228 37.2053 263.228 35.712V33.344C263.228 32.6613 263.015 32.4693 262.588 32.768C262.204 33.024 261.884 33.2587 261.628 33.472C260.988 34.0267 260.305 34.6667 259.58 35.392C258.897 36.1173 258.193 36.864 257.468 37.632C255.505 39.68 253.863 41.1947 252.54 42.176C251.26 43.1573 250.385 43.648 249.916 43.648ZM279.049 43.136C278.238 43.4347 277.555 43.584 277.001 43.584C276.489 43.5413 275.913 43.2853 275.273 42.816C274.462 42.048 274.185 41.28 274.441 40.512C274.739 39.7013 275.443 38.912 276.553 38.144C277.321 37.6747 277.875 37.4187 278.217 37.376C278.601 37.3333 279.177 37.4827 279.945 37.824C281.225 38.6347 281.779 39.5307 281.609 40.512C281.481 41.4933 280.627 42.368 279.049 43.136Z" fill="#A586F7"/>
</svg>
