<svg width="396" height="60" viewBox="0 0 396 60" fill="none" xmlns="http://www.w3.org/2000/svg">
<path d="M0.2 46V45.04L4.04 44.08V3.12L0.2 2.16V1.2H18.44V2.16L14.6 3.12V22.96H28.36V3.12L24.52 2.16V1.2H42.76V2.16L38.92 3.12V44.08L42.76 45.04V46H24.52V45.04L28.36 44.08V24.56H14.6V44.08L18.44 45.04V46H0.2ZM48.4975 45.04L52.3375 44.08V15.92L48.4975 14.96V14H56.8175C60.6575 14 62.5775 15.92 62.5775 19.76V44.08L66.4175 45.04V46H48.4975V45.04ZM56.8175 10.16C55.5375 10.16 54.4708 9.73333 53.6175 8.88C52.7642 8.02666 52.3375 6.96 52.3375 5.68C52.3375 4.4 52.7642 3.33333 53.6175 2.48C54.4708 1.62666 55.5375 1.2 56.8175 1.2C58.0975 1.2 59.1642 1.62666 60.0175 2.48C60.8708 3.33333 61.2975 4.4 61.2975 5.68C61.2975 6.96 60.8708 8.02666 60.0175 8.88C59.1642 9.73333 58.0975 10.16 56.8175 10.16ZM71.5275 7.6C71.5275 5.38133 72.1035 3.61067 73.2555 2.288C74.4502 0.922665 75.9008 0.239998 77.6075 0.239998C79.3142 0.239998 80.7435 0.922665 81.8955 2.288C83.0902 3.61067 83.6875 5.38133 83.6875 7.6L78.5675 32.24H76.6475L71.5275 7.6ZM77.6075 46.64C76.3275 46.64 75.1968 46.1493 74.2155 45.168C73.2768 44.144 72.8075 42.928 72.8075 41.52C72.8075 40.112 73.2768 38.9173 74.2155 37.936C75.1968 36.912 76.3275 36.4 77.6075 36.4C78.8875 36.4 79.9968 36.912 80.9355 37.936C81.9168 38.9173 82.4075 40.112 82.4075 41.52C82.4075 42.928 81.9168 44.144 80.9355 45.168C79.9968 46.1493 78.8875 46.64 77.6075 46.64ZM108.638 46V45.04L112.478 44.08V3.12L108.638 2.16V1.2H126.878V2.16L123.038 3.12V44.08L126.878 45.04V46H108.638ZM134.543 16.24C135.439 15.9413 136.335 15.4507 137.231 14.768C139.065 13.4027 140.196 11.5467 140.623 9.2L139.791 9.712C139.236 10.0107 138.553 10.16 137.743 10.16C136.463 10.16 135.332 9.69067 134.351 8.752C133.412 7.77067 132.943 6.64 132.943 5.36C132.943 4.08 133.412 2.97066 134.351 2.032C135.332 1.05066 136.463 0.559998 137.743 0.559998C139.236 0.559998 140.452 1.09333 141.391 2.16C142.372 3.184 142.863 4.57067 142.863 6.32C142.863 10.2453 141.583 13.3173 139.023 15.536C137.913 16.56 136.633 17.328 135.183 17.84L134.543 16.24ZM148.31 45.04L152.15 44.08V15.92L148.31 14.96V14H154.07C156.587 14 158.571 14.8107 160.022 16.432C160.577 17.072 161.046 17.8613 161.43 18.8C162.07 17.6053 162.753 16.6453 163.478 15.92C165.398 14 167.595 13.04 170.07 13.04C172.545 13.04 174.721 13.5947 176.598 14.704C178.475 15.7707 179.926 17.2427 180.95 19.12C181.59 17.8827 182.273 16.88 182.998 16.112C184.961 14.064 187.158 13.04 189.59 13.04C191.851 13.04 193.878 13.5093 195.67 14.448C197.505 15.3867 198.913 16.6667 199.894 18.288C200.918 19.9093 201.43 21.68 201.43 23.6V44.08L205.27 45.04V46H196.95C193.11 46 191.19 44.08 191.19 40.24V23.6C191.19 20.8267 190.763 18.7573 189.91 17.392C189.057 15.984 188.097 15.28 187.03 15.28C185.793 15.28 184.534 16.1333 183.254 17.84C182.742 18.6507 182.294 19.504 181.91 20.4V44.08L185.75 45.04V46H167.83V45.04L171.67 44.08V23.6C171.67 20.8267 171.243 18.7573 170.39 17.392C169.537 15.984 168.577 15.28 167.51 15.28C166.273 15.28 165.014 16.1333 163.734 17.84C163.222 18.6507 162.774 19.504 162.39 20.4V44.08L166.23 45.04V46H148.31V45.04ZM227.7 45.04L231.54 44.08V3.12L227.7 2.16V1.2H244.66C251.913 1.2 257.14 2.30933 260.34 4.528C263.54 6.704 265.14 9.75467 265.14 13.68C265.14 16.3253 264.436 18.48 263.028 20.144C261.62 21.7653 259.807 22.9813 257.588 23.792C255.241 24.688 252.745 25.1573 250.1 25.2V25.52C251.679 25.6053 253.065 25.84 254.26 26.224C257.247 27.1627 259.273 28.848 260.34 31.28L266.1 44.08L269.3 45.04V46H260.34C256.841 46 254.281 44.1867 252.66 40.56L246.26 26.16H242.1V44.08L246.58 45.04V46H227.7V45.04ZM244.66 24.56C247.647 24.56 249.993 23.6213 251.7 21.744C253.407 19.8667 254.26 17.1787 254.26 13.68C254.26 10.1813 253.407 7.49333 251.7 5.616C249.993 3.73867 247.647 2.8 244.66 2.8H242.1V24.56H244.66ZM277.663 59.76C275.743 59.76 274.249 59.248 273.183 58.224C272.116 57.2 271.583 55.792 271.583 54C271.583 52.3787 272.009 51.12 272.863 50.224C273.759 49.328 274.932 48.88 276.383 48.88C276.724 48.88 277.065 48.9013 277.407 48.944C277.748 49.0293 277.983 49.072 278.111 49.072L278.943 49.2V57.84C280.18 57.6267 281.268 56.944 282.207 55.792C283.145 54.64 284.191 52.656 285.343 49.84L286.623 46.64L269.983 15.92L266.782 14.96V14H274.783C277.001 14 278.751 14.4693 280.031 15.408C281.353 16.304 282.484 17.648 283.423 19.44L291.423 34.224L298.143 16.88L293.343 14.96V14H305.183V14.96L300.062 16.88L287.263 49.84C285.897 53.3387 284.447 55.856 282.911 57.392C281.375 58.9707 279.625 59.76 277.663 59.76ZM316.353 46.96C312.555 46.96 309.633 46.1493 307.585 44.528C305.537 42.9067 304.513 40.8373 304.513 38.32C304.513 36.656 304.875 35.0133 305.601 33.392C305.899 32.624 306.283 31.92 306.753 31.28C308.502 30.8533 310.401 30.4693 312.449 30.128C317.057 29.36 321.131 28.8907 324.673 28.72V26.8C324.673 22.064 324.097 18.8 322.945 17.008C321.793 15.216 320.022 14.32 317.633 14.32C316.737 14.32 315.969 14.4267 315.329 14.64L314.433 14.96V24.56L313.601 24.752C312.918 24.8373 312.342 24.88 311.873 24.88C310.422 24.88 309.249 24.4533 308.353 23.6C307.499 22.704 307.073 21.5307 307.073 20.08C307.073 18.1173 308.054 16.4533 310.017 15.088C312.022 13.7227 314.987 13.04 318.913 13.04C322.241 13.04 325.099 13.6373 327.489 14.832C329.921 15.984 331.755 17.6053 332.993 19.696C334.273 21.744 334.913 24.112 334.913 26.8V44.08L338.753 45.04V46H332.993C330.433 46 328.449 45.2107 327.041 43.632C326.443 42.992 325.974 42.1813 325.633 41.2C325.035 42.2667 324.331 43.2267 323.521 44.08C321.601 46 319.211 46.96 316.353 46.96ZM318.913 44.72C320.491 44.72 321.921 43.8667 323.201 42.16C323.67 41.52 324.161 40.6667 324.673 39.6V30.32C322.71 30.32 320.833 30.4267 319.041 30.64C317.718 30.8107 316.822 30.9173 316.353 30.96C316.139 31.4293 315.926 32.0693 315.713 32.88C315.286 34.5013 315.073 36.1013 315.073 37.68C315.073 40.0693 315.435 41.84 316.161 42.992C316.886 44.144 317.803 44.72 318.913 44.72ZM342.623 45.04L346.463 44.08V15.92L342.623 14.96V14H348.383C350.9 14 352.884 14.8107 354.335 16.432C354.889 17.072 355.359 17.8613 355.743 18.8C356.34 17.6907 357.044 16.7307 357.855 15.92C359.775 14 362.164 13.04 365.023 13.04C367.412 13.04 369.545 13.552 371.423 14.576C373.343 15.5573 374.836 16.8587 375.903 18.48C376.969 20.1013 377.503 21.808 377.503 23.6V44.08L381.343 45.04V46H373.023C369.183 46 367.263 44.08 367.263 40.24V23.6C367.263 20.912 366.772 18.864 365.791 17.456C364.852 16.0053 363.743 15.28 362.463 15.28C360.841 15.28 359.391 16.1333 358.111 17.84C357.556 18.5653 357.087 19.4187 356.703 20.4V44.08L360.543 45.04V46H342.623V45.04ZM390.305 46.64C389.025 46.64 387.894 46.1707 386.913 45.232C385.974 44.2507 385.505 43.12 385.505 41.84C385.505 40.56 385.974 39.4507 386.913 38.512C387.894 37.5307 389.025 37.04 390.305 37.04C391.585 37.04 392.694 37.5307 393.633 38.512C394.614 39.4507 395.105 40.56 395.105 41.84C395.105 43.12 394.614 44.2507 393.633 45.232C392.694 46.1707 391.585 46.64 390.305 46.64Z" fill="#A586F7"/>
</svg>
